<svg width="642" height="76" viewBox="0 0 642 76" fill="none" xmlns="http://www.w3.org/2000/svg">
<path d="M1.45 5.71133H0V2.34134C3.53 2.67134 6.91 2.88124 10.15 2.99124C11.9433 2.99124 14.69 2.8746 18.39 2.64127C22.11 2.45127 25.61 2.34134 28.92 2.34134C33.126 2.26888 37.3072 2.99846 41.24 4.49124C44.6226 5.78581 47.6759 7.81459 50.18 10.4313C52.5719 12.9942 54.4011 16.0293 55.55 19.3413C56.7792 22.8533 57.3948 26.5505 57.37 30.2713C57.3889 34.0643 56.798 37.8358 55.62 41.4413C54.5074 44.8645 52.7149 48.0277 50.35 50.7412C47.9023 53.5039 44.8544 55.6693 41.44 57.0713C37.5211 58.664 33.3193 59.443 29.09 59.3612C26.7186 59.3405 24.3508 59.1735 22 58.8612L13.88 57.8612C11.532 57.554 9.16784 57.387 6.8 57.3612C4.52343 57.3714 2.25066 57.5486 0 57.8913V54.3513H4.45C5.65359 54.3814 6.82566 53.9646 7.74 53.1813C8.17524 52.7979 8.52022 52.3228 8.75017 51.7903C8.98012 51.2578 9.08934 50.6811 9.07 50.1013V19.2913C9.14797 16.2092 8.97742 13.126 8.56 10.0713C8.22 8.24132 7.56 7.07127 6.56 6.52127C4.94184 5.86112 3.19299 5.58397 1.45 5.71133V5.71133ZM15.77 6.24124V45.1413C15.77 48.6213 16.77 51.2713 18.77 53.1413C20.77 55.0113 24.16 55.8712 28.86 55.8712C32.1151 55.8223 35.3213 55.0719 38.26 53.6713C40.7759 52.439 42.9679 50.6341 44.66 48.4013C46.3285 46.137 47.5565 43.5792 48.28 40.8612C49.0819 37.8902 49.4986 34.8285 49.52 31.7513C49.5331 28.393 48.9543 25.0586 47.81 21.9013C46.6915 18.8213 44.9944 15.9837 42.81 13.5413C40.6429 11.0985 37.9806 9.14524 35 7.81131C31.8232 6.43801 28.3905 5.75625 24.93 5.81131H22.74L15.77 6.24124Z" fill="white"/>
<path d="M62.16 5.88123V2.34131C64.05 2.63131 67.77 2.91125 73.31 3.16125C78.7433 2.91459 82.46 2.64131 84.46 2.34131V5.88123H82.56C81.1605 5.84655 79.7687 6.09836 78.47 6.62122C77.7816 7.02204 77.2707 7.66884 77.04 8.43127C76.7477 9.55483 76.5602 10.703 76.48 11.8612C76.6355 12.5804 76.7026 13.3159 76.68 14.0513V41.4213C76.6437 41.7862 76.5768 42.1475 76.48 42.5012C76.6515 45.395 77.0325 48.2725 77.62 51.1112C78.12 53.4112 79.17 54.5613 80.75 54.5613H85.9V57.7312C81.7844 57.2103 77.6384 56.9664 73.49 57.0012C69.4016 56.971 65.3158 57.2149 61.26 57.7312V54.3612H65.35C67.27 54.3612 68.54 53.7812 69.19 52.6112C69.9331 51.0533 70.2768 49.335 70.19 47.6112V17.5212C70.19 10.2912 69.38 6.46123 67.73 6.01123C66.8929 5.85538 66.0408 5.79506 65.19 5.8313L62.16 5.88123ZM77.94 30.2913L92.43 12.0813C92.8613 11.6377 93.198 11.1111 93.4197 10.5336C93.6414 9.95601 93.7436 9.33953 93.72 8.72131C93.72 6.84131 92.6534 5.90125 90.52 5.90125H87.63V2.57129C89.88 2.90129 92.95 3.17121 96.88 3.36121C101.613 3.16787 105.39 2.90462 108.21 2.57129V6.0813H106.74C105.729 6.05374 104.719 6.16815 103.74 6.42126C102.981 6.64595 102.277 7.02371 101.67 7.53125C100.835 8.28373 100.062 9.10307 99.36 9.9812L85.54 27.2913C87.8 30.5513 90.0234 33.6312 92.21 36.5312C94.3967 39.4313 96.67 42.2979 99.03 45.1312C101.39 47.9646 103.797 50.7013 106.25 53.3413C108.703 55.9813 111.347 58.6846 114.18 61.4513L110.02 63.5312C107.14 60.9179 104.277 58.2513 101.43 55.5312C98.5833 52.8112 95.7567 50.0112 92.95 47.1312C90.15 44.2646 87.5033 41.4213 85.01 38.6013C82.5167 35.7813 80.16 33.0113 77.94 30.2913Z" fill="white"/>
<path d="M156.86 34.8913C154.92 39.558 153.473 43.2947 152.52 46.1014C151.789 47.9596 151.308 49.9065 151.09 51.8913C151.072 52.2942 151.146 52.6959 151.305 53.0665C151.465 53.437 151.705 53.7668 152.01 54.0313C152.753 54.5964 153.657 54.9084 154.59 54.9213L156.79 55.0713C156.963 55.0648 157.135 55.0953 157.295 55.1609C157.455 55.2266 157.599 55.3257 157.718 55.4517C157.836 55.5778 157.926 55.7277 157.982 55.8915C158.037 56.0553 158.057 56.2292 158.04 56.4013C158.088 56.8186 158.008 57.2406 157.81 57.6113C157.487 57.8289 157.096 57.9213 156.71 57.8713H156.4H155.5C153.22 57.6913 150.96 57.6113 148.71 57.6113C146.46 57.6113 144.26 57.6913 141.89 57.8313C141.28 57.8313 140.89 57.9013 140.7 57.9013C140.323 57.9524 139.941 57.8595 139.63 57.6413C139.418 57.2756 139.334 56.8501 139.39 56.4313C139.39 55.6713 139.69 55.2513 140.33 55.1813L140.7 55.1014L142.49 54.8713C142.995 54.8067 143.482 54.6428 143.923 54.3887C144.364 54.1347 144.751 53.7956 145.06 53.3913C146.171 51.817 147.053 50.0932 147.68 48.2713L165.63 4.88128C165.73 4.52659 165.923 4.20539 166.19 3.95135C166.452 3.82633 166.74 3.76789 167.03 3.7813H170.52C171 3.7813 171.3 3.91132 171.39 4.17132L188.72 50.2913C189.097 51.4474 189.676 52.5274 190.43 53.4813C190.985 54.1342 191.747 54.5757 192.59 54.7313L194.87 55.1113C195.058 55.1479 195.249 55.1747 195.44 55.1913C196.02 55.1913 196.31 55.6313 196.31 56.4413C196.364 56.8613 196.276 57.2874 196.06 57.6513C195.705 57.8721 195.285 57.9639 194.87 57.9113H193.62C190.82 57.7313 188.11 57.6513 185.54 57.6513C182.97 57.6513 180.23 57.7313 177.41 57.8713C176.73 57.8713 176.31 57.9413 176.14 57.9413C175.715 57.9985 175.284 57.9066 174.92 57.6813C174.694 57.3211 174.602 56.8927 174.66 56.4714C174.66 55.6814 174.97 55.2714 175.6 55.2214L176.14 55.1413L178.56 54.8414C179.356 54.7682 180.112 54.4582 180.73 53.9513C180.98 53.7165 181.178 53.4308 181.309 53.1135C181.44 52.7961 181.502 52.4544 181.49 52.1113C181.161 50.3349 180.645 48.5986 179.95 46.9313C178.95 44.0713 177.39 40.0713 175.34 34.9313L156.86 34.8913ZM157.86 32.0013H174.4C173.74 29.9113 172.71 27.0013 171.28 23.4213C169.85 19.8413 168.14 15.5713 166.09 10.7313L157.86 32.0013Z" fill="white"/>
<path d="M204.8 50.7413V28.8213C204.886 27.6551 204.625 26.4897 204.05 25.4714C203.777 25.1045 203.42 24.808 203.01 24.6062C202.6 24.4045 202.147 24.3034 201.69 24.3113L199.31 24.1613H199.23C198.4 24.1613 197.98 23.7313 197.98 23.0213C197.937 22.6739 198.01 22.3219 198.19 22.0213C198.33 21.8613 198.71 21.7913 199.31 21.7913H199.69L204.17 21.7113C205.78 21.6613 207.49 21.5513 209.28 21.3713C209.548 21.3638 209.815 21.3404 210.08 21.3013C210.193 21.2861 210.309 21.2981 210.417 21.3363C210.524 21.3746 210.622 21.438 210.7 21.5213C210.846 21.7865 210.909 22.0898 210.88 22.3913V25.7413C211.735 24.3189 212.918 23.1221 214.33 22.2513C215.66 21.4592 217.182 21.0508 218.73 21.0713C220.553 20.9607 222.348 21.5671 223.73 22.7613C224.344 23.3854 224.82 24.1319 225.127 24.9519C225.433 25.772 225.564 26.6474 225.51 27.5213C225.609 28.6192 225.372 29.7214 224.83 30.6813C224.537 31.0062 224.172 31.2572 223.763 31.4136C223.355 31.57 222.915 31.6275 222.48 31.5813C220.91 31.5813 220.02 30.5813 219.82 28.6513C219.82 28.4513 219.77 28.2713 219.75 28.1213C219.689 27.2216 219.314 26.3721 218.69 25.7214C218.012 25.1444 217.138 24.8506 216.25 24.9013C215.498 24.853 214.747 25.0145 214.082 25.3676C213.416 25.7207 212.862 26.2516 212.48 26.9013C211.68 28.2346 211.28 30.4046 211.28 33.4113V50.7312C211.192 51.8731 211.417 53.0174 211.93 54.0413C212.173 54.3797 212.493 54.6558 212.863 54.847C213.233 55.0382 213.643 55.139 214.06 55.1413L217.27 55.4013H217.5C218.26 55.4546 218.64 55.8346 218.64 56.5413C218.687 56.9157 218.61 57.2951 218.42 57.6213C218.107 57.8266 217.731 57.9118 217.36 57.8613H216.18C213.4 57.6813 210.7 57.6014 208.1 57.6014C205.65 57.6014 203.1 57.6813 200.4 57.8613H199.22C198.66 57.8613 198.31 57.7913 198.16 57.6213C197.97 57.2951 197.893 56.9157 197.94 56.5413C197.92 56.3987 197.931 56.2535 197.972 56.1155C198.013 55.9775 198.083 55.8501 198.178 55.7419C198.273 55.6336 198.391 55.5471 198.522 55.4883C198.653 55.4296 198.796 55.3999 198.94 55.4013H199.17L201.94 55.1413C202.369 55.1444 202.792 55.0465 203.176 54.8554C203.56 54.6643 203.894 54.3854 204.15 54.0413C204.66 53.0199 204.884 51.8797 204.8 50.7413V50.7413Z" fill="white"/>
<path d="M265.34 38.7612C265.34 45.3612 263.797 50.3612 260.71 53.7612C257.623 57.1612 253.047 58.8279 246.98 58.7612C241.44 58.7612 237.263 57.2646 234.45 54.2712C231.637 51.2779 230.227 46.8446 230.22 40.9713C230.22 34.238 231.75 29.188 234.81 25.8213C237.87 22.4546 242.447 20.7679 248.54 20.7612C254.16 20.7612 258.35 22.2612 261.15 25.2512C263.95 28.2412 265.34 32.7412 265.34 38.7612ZM247.18 56.0913C250.95 56.0913 253.78 54.7412 255.68 52.0112C257.58 49.2812 258.51 45.2213 258.51 39.7913C258.51 33.8713 257.733 29.6613 256.18 27.1613C254.63 24.6613 252.06 23.4012 248.47 23.4012C244.55 23.4012 241.653 24.7779 239.78 27.5312C237.907 30.2846 236.98 34.5712 237 40.3912C237 45.9312 237.82 49.9312 239.42 52.3912C241.02 54.8512 243.59 56.0913 247.18 56.0913V56.0913Z" fill="white"/>
<path d="M277.71 50.7412V28.8212C277.805 27.6201 277.518 26.4196 276.89 25.3912C276.58 25.0158 276.188 24.7169 275.744 24.5175C275.3 24.3181 274.816 24.2235 274.33 24.2412L272.17 24.1612C271.56 24.1612 271.17 24.0912 271.05 23.9312C270.899 23.632 270.82 23.3015 270.82 22.9663C270.82 22.631 270.899 22.3004 271.05 22.0012C271.21 21.8412 271.69 21.7712 272.51 21.7712L276.95 21.6912C277.71 21.6912 278.76 21.6012 280.14 21.4912C281.52 21.3812 282.48 21.3012 283.14 21.2812C283.243 21.2686 283.348 21.2791 283.446 21.312C283.545 21.3448 283.635 21.3993 283.71 21.4713C283.847 21.6401 283.915 21.8544 283.9 22.0712V25.9412C285.362 24.258 287.179 22.9193 289.22 22.0212C291.352 21.1402 293.643 20.7079 295.95 20.7512C298.132 20.6646 300.297 21.1654 302.22 22.2012C303.864 23.1956 305.088 24.7571 305.66 26.5913C307.268 24.7292 309.243 23.2178 311.46 22.1512C313.665 21.1854 316.053 20.7078 318.46 20.7512C322.18 20.7512 324.83 21.6412 326.4 23.4612C327.97 25.2812 328.78 28.3611 328.78 32.7311V50.7311C328.681 51.8889 328.881 53.0525 329.36 54.1111C329.609 54.4314 329.929 54.6888 330.296 54.8625C330.662 55.0362 331.065 55.1213 331.47 55.1111L334.2 55.3712H334.48C334.628 55.3622 334.776 55.3865 334.914 55.442C335.052 55.4974 335.175 55.5828 335.276 55.692C335.376 55.8011 335.451 55.9312 335.495 56.0729C335.539 56.2146 335.551 56.3643 335.53 56.5112C335.568 56.8937 335.495 57.279 335.32 57.6212C335.02 57.8014 334.667 57.8755 334.32 57.8312C334.1 57.8312 333.62 57.8312 332.89 57.7612C330.33 57.6212 327.95 57.5412 325.76 57.5412C323.57 57.5412 321.14 57.6212 318.76 57.8012H317.86C317.514 57.8447 317.163 57.7745 316.86 57.6013C316.71 57.4613 316.64 57.0911 316.64 56.4811C316.64 55.8711 316.96 55.3913 317.59 55.3413H317.78L320.21 55.0812C320.584 55.0693 320.948 54.9619 321.268 54.7694C321.588 54.5768 321.854 54.3054 322.04 53.9811C322.486 52.9376 322.678 51.8033 322.6 50.6712V33.8812C322.6 30.1612 322.03 27.5912 320.9 26.2012C319.77 24.8112 317.82 24.0913 315.01 24.0913C312.734 24.0123 310.51 24.7821 308.77 26.2512C307.986 26.8944 307.356 27.7055 306.927 28.6245C306.497 29.5434 306.28 30.547 306.29 31.5612V50.6712C306.21 51.8025 306.399 52.9365 306.84 53.9811C307.024 54.3067 307.29 54.5791 307.61 54.7718C307.931 54.9645 308.296 55.0712 308.67 55.0812L311.11 55.3413H311.33C311.96 55.3913 312.33 55.7711 312.33 56.4811C312.363 56.8725 312.272 57.2645 312.07 57.6013C311.767 57.7745 311.416 57.8447 311.07 57.8012H310.16C307.84 57.6212 305.55 57.5412 303.29 57.5412C301.03 57.5412 298.76 57.6212 296.42 57.8012H295.56C295.196 57.8476 294.828 57.7739 294.51 57.5913C294.328 57.2513 294.255 56.8639 294.3 56.4811C294.3 55.7711 294.62 55.3913 295.25 55.3413H295.44L297.79 55.0812C298.176 55.0734 298.554 54.9661 298.887 54.77C299.219 54.5738 299.496 54.2953 299.69 53.9612C300.14 52.9258 300.335 51.7977 300.26 50.6712V33.8812C300.26 30.1812 299.67 27.6312 298.54 26.2112C297.41 24.7912 295.4 24.0913 292.6 24.0913C290.321 24.0127 288.094 24.7823 286.35 26.2512C285.566 26.8944 284.936 27.7055 284.507 28.6245C284.077 29.5434 283.86 30.547 283.87 31.5612V50.6712C283.798 51.7994 284.001 52.9283 284.46 53.9612C284.654 54.2912 284.927 54.567 285.256 54.7628C285.585 54.9586 285.958 55.0681 286.34 55.0812L288.68 55.3413H288.91C289.577 55.3946 289.91 55.7745 289.91 56.4811C289.948 56.8636 289.875 57.2491 289.7 57.5913C289.383 57.7753 289.014 57.8491 288.65 57.8012H287.65C285.34 57.6212 283.11 57.5412 280.94 57.5412C278.56 57.5412 276.06 57.6212 273.46 57.7612C272.78 57.7612 272.34 57.8312 272.17 57.8312C271.59 57.8312 271.23 57.7613 271.07 57.5913C270.876 57.2666 270.795 56.8867 270.84 56.5112C270.84 55.8012 271.24 55.4212 272.02 55.3712H272.25L274.91 55.1111C275.338 55.1119 275.761 55.013 276.145 54.8221C276.528 54.6312 276.862 54.3535 277.12 54.0112C277.616 52.9969 277.82 51.8648 277.71 50.7412Z" fill="white"/>
<path d="M362.37 54.9912C360.741 56.1499 358.943 57.0506 357.04 57.6613C355.134 58.2207 353.157 58.5003 351.17 58.4912C347.71 58.4912 345.02 57.5779 343.1 55.7512C342.105 54.7506 341.333 53.5508 340.835 52.2306C340.337 50.9104 340.124 49.4997 340.21 48.0913C340.21 44.3246 341.34 41.5812 343.6 39.8612C345.86 38.1412 349.473 37.2812 354.44 37.2812H361.87V30.6813C361.87 28.2513 361.3 26.4512 360.16 25.2512C359.02 24.0512 357.27 23.4713 354.89 23.4713C353.129 23.353 351.377 23.8014 349.89 24.7512C349.297 25.2529 348.818 25.8756 348.485 26.5775C348.152 27.2795 347.973 28.0445 347.96 28.8213C347.96 28.9613 347.91 29.1012 347.88 29.2812C347.62 31.6813 346.72 32.8812 345.15 32.8812C344.442 32.9473 343.733 32.7596 343.15 32.3513C342.936 32.1047 342.774 31.817 342.674 31.5059C342.574 31.1947 342.539 30.8665 342.57 30.5413C342.49 29.1617 342.753 27.7838 343.336 26.5308C343.919 25.2778 344.803 24.1887 345.91 23.3612C348.13 21.7212 351.377 20.9012 355.65 20.9012C360.25 20.9012 363.507 21.8313 365.42 23.6913C367.333 25.5513 368.287 28.718 368.28 33.1913V50.5913C368.199 51.7673 368.441 52.943 368.98 53.9912C369.201 54.3512 369.511 54.6475 369.881 54.851C370.251 55.0544 370.668 55.1579 371.09 55.1512L373.17 55.2213C373.536 55.172 373.908 55.2535 374.22 55.4513C374.39 55.7554 374.464 56.1043 374.43 56.4513C374.43 57.2113 373.98 57.6413 373.1 57.7113H372.87L368.87 57.7812C367.37 57.7812 365.87 57.9213 364.47 58.0513C364.14 58.0513 363.96 58.0513 363.9 58.0513C363.633 58.0562 363.374 57.9634 363.172 57.7902C362.969 57.6169 362.837 57.3753 362.8 57.1112V57.1112L362.37 54.9912ZM361.87 48.7013V39.7013H355.61C352.617 39.7013 350.407 40.3347 348.98 41.6013C347.54 42.8613 346.81 44.7912 346.81 47.4012C346.81 50.0112 347.38 52.1212 348.54 53.4012C349.7 54.6812 351.47 55.4012 353.86 55.4012C356.54 55.4012 358.55 54.8412 359.86 53.7312C360.556 53.1014 361.099 52.3209 361.448 51.4491C361.796 50.5773 361.94 49.6374 361.87 48.7013V48.7013Z" fill="white"/>
<path d="M389.48 45.6312C389.48 49.8012 389.83 52.4913 390.54 53.6813C391.25 54.8713 392.54 55.4912 394.45 55.4912C395.501 55.4829 396.541 55.283 397.52 54.9012C398.58 54.5012 399.14 54.3113 399.19 54.3113C399.24 54.3113 399.55 54.4713 399.74 54.7913C399.928 55.0911 400.029 55.4374 400.03 55.7913C400.03 56.2713 399.11 56.8713 397.28 57.5913C395.412 58.3169 393.424 58.6833 391.42 58.6713C388.42 58.6713 386.31 57.9012 384.96 56.3612C383.61 54.8212 382.96 52.3613 382.96 49.0413C382.96 48.0413 382.96 46.6512 383.03 44.8912C383.1 43.1312 383.11 41.8912 383.11 41.1112V24.2913H378.45C378.063 24.3344 377.672 24.2687 377.32 24.1013C377.137 23.8022 377.066 23.4478 377.12 23.1013C377.072 22.7357 377.142 22.3642 377.32 22.0413C377.774 21.8626 378.265 21.7974 378.75 21.8513H383.11V11.5112C383.086 11.1992 383.152 10.8867 383.3 10.6112C383.436 10.4139 383.638 10.272 383.87 10.2113C384.87 9.8913 385.95 9.46128 387.15 8.94128C387.842 8.59159 388.574 8.32953 389.33 8.16125C389.404 8.18541 389.47 8.2303 389.52 8.29053C389.569 8.35075 389.601 8.42378 389.61 8.50122C389.699 8.85065 389.736 9.21117 389.72 9.57129C389.72 10.5713 389.72 11.7912 389.6 13.3612C389.48 14.9312 389.48 16.0213 389.48 16.6613V21.8513H396.69C397.096 21.8028 397.506 21.8759 397.87 22.0613C398.065 22.3557 398.144 22.7122 398.09 23.0613C398.09 23.5913 398.02 23.9313 397.87 24.0613C397.406 24.269 396.894 24.3451 396.39 24.2812H389.48V45.6312Z" fill="white"/>
<path d="M409.82 50.7412V7.55128C409.91 6.35841 409.657 5.16457 409.09 4.11121C408.808 3.74867 408.448 3.45563 408.035 3.25452C407.622 3.05342 407.169 2.94969 406.71 2.9513L404.38 2.88123C403.48 2.80123 403.01 2.39123 403.01 1.63123C402.977 1.31669 403.04 0.9996 403.19 0.721321C403.29 0.571321 403.58 0.491218 404.04 0.491218H404.72L409.19 0.421272C410.51 0.371272 411.88 0.281272 413.29 0.171272L415.61 0.00122791C415.724 -0.00551806 415.839 0.0156126 415.943 0.0626293C416.048 0.109646 416.139 0.181171 416.21 0.271247C416.354 0.58367 416.409 0.929554 416.37 1.27125C416.37 1.45125 416.37 1.98123 416.26 2.88123C416.15 3.78123 416.14 4.59131 416.14 5.33131V25.9613C417.685 24.2719 419.579 22.9379 421.69 22.0513C423.98 21.1582 426.423 20.7233 428.88 20.7712C432.78 20.7712 435.56 21.6912 437.25 23.5212C438.94 25.3512 439.77 28.4312 439.77 32.7512V50.7512C439.669 51.9101 439.872 53.0753 440.36 54.1312C440.605 54.4531 440.924 54.7118 441.289 54.8857C441.654 55.0597 442.056 55.1438 442.46 55.1312L445.27 55.3912H445.5C445.651 55.3759 445.804 55.3954 445.947 55.448C446.089 55.5007 446.218 55.5852 446.323 55.6951C446.428 55.805 446.507 55.9375 446.553 56.0824C446.599 56.2273 446.612 56.3808 446.59 56.5313C446.637 56.9056 446.56 57.2851 446.37 57.6112C446.21 57.7812 445.85 57.8513 445.27 57.8513C445.1 57.8513 444.66 57.8513 443.98 57.7813C441.4 57.6413 438.93 57.5613 436.58 57.5613C434.23 57.5613 431.58 57.6413 428.96 57.8213H427.79C427.22 57.8213 426.87 57.7513 426.72 57.5813C426.526 57.2566 426.445 56.8768 426.49 56.5012C426.49 55.7912 426.87 55.4112 427.64 55.3612H427.9L430.55 55.1013C430.966 55.1037 431.377 55.0091 431.75 54.8251C432.123 54.6411 432.449 54.3727 432.7 54.0413C433.198 52.9985 433.411 51.843 433.32 50.6913V33.9013C433.32 30.1513 432.73 27.5913 431.54 26.2013C430.35 24.8113 428.28 24.1112 425.32 24.1112C422.944 24.0286 420.618 24.8063 418.77 26.3013C417.953 26.9182 417.291 27.7159 416.834 28.6321C416.378 29.5482 416.14 30.5578 416.14 31.5813V50.6913C416.057 51.8211 416.285 52.9521 416.8 53.9613C417.053 54.3167 417.387 54.6059 417.775 54.8043C418.164 55.0028 418.594 55.1047 419.03 55.1013L421.75 55.3612H422C422.15 55.3551 422.299 55.3808 422.438 55.4365C422.576 55.4922 422.702 55.5766 422.806 55.6843C422.91 55.792 422.99 55.9205 423.04 56.0613C423.091 56.2021 423.111 56.352 423.1 56.5012C423.128 56.891 423.041 57.2803 422.85 57.6212C422.547 57.7931 422.196 57.8633 421.85 57.8213C421.68 57.8213 421.23 57.8212 420.52 57.7512C417.88 57.6112 415.4 57.5313 413.05 57.5313C410.7 57.5313 408.05 57.6113 405.42 57.7913H404.29C403.7 57.7913 403.35 57.7213 403.19 57.5513C402.992 57.2284 402.91 56.8471 402.96 56.4713C402.96 55.7613 403.35 55.3813 404.14 55.3313H404.36L407.09 55.0713C407.509 55.0742 407.923 54.9767 408.297 54.7871C408.671 54.5975 408.994 54.3211 409.24 53.9812C409.709 52.9693 409.909 51.8532 409.82 50.7412V50.7412Z" fill="white"/>
<path d="M458.55 39.5613C458.488 39.9616 458.458 40.3662 458.46 40.7712C458.46 41.2012 458.46 41.8313 458.46 42.6713C458.46 47.2513 459.22 50.6112 460.77 52.7812C462.32 54.9513 464.7 56.0212 467.94 56.0212C470.217 56.0997 472.452 55.3936 474.27 54.0212C475.95 52.7002 477.05 50.7784 477.34 48.6613C477.34 48.4413 477.4 48.1312 477.46 47.7512C477.63 46.4112 478.61 45.7512 480.38 45.7512C480.933 45.7003 481.489 45.8115 481.98 46.0713C482.134 46.2339 482.249 46.4285 482.318 46.6412C482.388 46.854 482.409 47.0794 482.38 47.3013C482.392 48.8837 482.023 50.4459 481.304 51.8557C480.586 53.2655 479.538 54.4816 478.25 55.4012C475.188 57.6624 471.443 58.8058 467.64 58.6412C462.353 58.6412 458.353 57.0746 455.64 53.9413C452.92 50.8113 451.57 46.2012 451.57 40.1412C451.57 33.6412 452.94 28.7913 455.68 25.5913C458.42 22.4013 462.59 20.7913 468.17 20.7913C473.23 20.7913 476.967 22.1512 479.38 24.8712C481.793 27.5912 483 31.8079 483 37.5212C483.063 38.0794 482.929 38.642 482.62 39.1112C482.38 39.3912 481.71 39.5312 480.62 39.5312L458.55 39.5613ZM458.44 36.9012H475.92C475.92 36.7012 475.92 36.4012 475.92 35.9912C475.92 35.5812 475.92 35.3012 475.92 35.1212C475.92 31.1212 475.24 28.1212 473.92 26.2512C472.6 24.3812 470.44 23.4012 467.59 23.4012C466.258 23.3129 464.925 23.5659 463.717 24.1364C462.51 24.7068 461.468 25.5758 460.69 26.6613C459.17 28.8413 458.41 32.1547 458.41 36.6013L458.44 36.9012Z" fill="white"/>
<path d="M494.35 50.7412V28.8213C494.443 27.6533 494.178 26.4847 493.59 25.4713C493.32 25.1061 492.967 24.8102 492.56 24.6085C492.153 24.4068 491.704 24.305 491.25 24.3113L488.86 24.1613H488.78C487.94 24.1146 487.52 23.7346 487.52 23.0213C487.483 22.6729 487.56 22.322 487.74 22.0213C487.87 21.8613 488.25 21.7913 488.86 21.7913H489.25L493.71 21.7113C495.33 21.6613 497.04 21.5512 498.83 21.3712C499.098 21.3637 499.365 21.3404 499.63 21.3013C499.743 21.2869 499.859 21.2992 499.966 21.3374C500.074 21.3756 500.171 21.4386 500.25 21.5213C500.392 21.7877 500.452 22.0908 500.42 22.3912V25.7412C501.283 24.3224 502.469 23.1269 503.88 22.2512C505.213 21.4578 506.739 21.0495 508.29 21.0713C510.115 20.9498 511.913 21.5576 513.29 22.7612C513.907 23.3834 514.386 24.1292 514.695 24.9496C515.003 25.77 515.134 26.6464 515.08 27.5213C515.179 28.6192 514.942 29.7214 514.4 30.6813C514.107 31.0062 513.742 31.2572 513.333 31.4136C512.925 31.57 512.485 31.6275 512.05 31.5813C510.48 31.5813 509.59 30.5813 509.39 28.6513C509.39 28.4513 509.34 28.2712 509.31 28.1212C509.275 27.2272 508.92 26.3755 508.31 25.7213C507.631 25.1462 506.758 24.8527 505.87 24.9013C505.118 24.8518 504.367 25.0127 503.701 25.366C503.035 25.7192 502.481 26.2508 502.1 26.9013C501.3 28.2346 500.9 30.4046 500.9 33.4113V50.7312C500.807 51.8734 501.032 53.019 501.55 54.0413C501.792 54.3783 502.11 54.6536 502.479 54.8447C502.847 55.0359 503.255 55.1374 503.67 55.1412L506.89 55.4013H507C507.76 55.4513 508.15 55.8313 508.15 56.5413C508.198 56.9182 508.113 57.3002 507.91 57.6212C507.76 57.7912 507.41 57.8612 506.85 57.8612H505.68C502.9 57.6812 500.19 57.6013 497.59 57.6013C495.15 57.6013 492.59 57.6812 489.9 57.8612H488.72C488.16 57.8612 487.81 57.7912 487.66 57.6212C487.462 57.2983 487.38 56.917 487.43 56.5413C487.409 56.3935 487.421 56.2428 487.465 56.1004C487.51 55.9579 487.586 55.8272 487.687 55.7179C487.789 55.6086 487.914 55.5233 488.053 55.4685C488.192 55.4137 488.341 55.3908 488.49 55.4013H488.72L491.5 55.1412C491.926 55.1436 492.346 55.0452 492.727 54.854C493.108 54.6628 493.438 54.3844 493.69 54.0413C494.209 53.0226 494.437 51.8809 494.35 50.7412V50.7412Z" fill="white"/>
<path d="M541.77 54.9912C540.14 56.1541 538.338 57.055 536.43 57.6613C534.531 58.2222 532.56 58.5018 530.58 58.4912C527.12 58.4912 524.423 57.5779 522.49 55.7512C520.557 53.9246 519.597 51.3713 519.61 48.0913C519.61 44.3213 520.75 41.5812 522.99 39.8612C525.23 38.1412 528.86 37.2812 533.84 37.2812H541.28V30.6813C541.28 28.2513 540.71 26.4512 539.56 25.2512C538.41 24.0512 536.67 23.4713 534.3 23.4713C532.539 23.3522 530.787 23.8008 529.3 24.7512C528.707 25.2529 528.228 25.8756 527.895 26.5775C527.562 27.2795 527.383 28.0445 527.37 28.8213C527.37 28.9613 527.32 29.1012 527.29 29.2812C527.043 31.6813 526.133 32.8812 524.56 32.8812C523.852 32.9473 523.143 32.7596 522.56 32.3513C522.346 32.1047 522.184 31.817 522.084 31.5059C521.984 31.1947 521.949 30.8665 521.98 30.5413C521.902 29.163 522.166 27.7869 522.746 26.5345C523.327 25.2822 524.208 24.1922 525.31 23.3612C527.543 21.7212 530.793 20.9012 535.06 20.9012C539.667 20.9012 542.923 21.8313 544.83 23.6913C546.737 25.5513 547.693 28.718 547.7 33.1913V50.5913C547.619 51.7673 547.861 52.943 548.4 53.9912C548.618 54.3518 548.926 54.6489 549.295 54.8525C549.663 55.0562 550.079 55.1591 550.5 55.1512L552.59 55.2213C552.94 55.1806 553.293 55.2618 553.59 55.4513C553.765 55.7535 553.839 56.1041 553.8 56.4513C553.8 57.2113 553.35 57.6413 552.47 57.7113H552.24L548.24 57.7812C546.74 57.7812 545.24 57.9213 543.83 58.0513C543.5 58.0513 543.31 58.0513 543.26 58.0513C542.995 58.052 542.738 57.9576 542.536 57.7852C542.334 57.6127 542.201 57.3735 542.16 57.1112V57.1112L541.77 54.9912ZM541.28 48.7013V39.7013H535C532.02 39.7013 529.81 40.3347 528.37 41.6013C526.93 42.868 526.21 44.8012 526.21 47.4012C526.21 50.1012 526.78 52.1212 527.93 53.4012C529.08 54.6812 530.85 55.4012 533.26 55.4012C535.927 55.4012 537.927 54.8445 539.26 53.7312C539.956 53.1009 540.5 52.3206 540.85 51.4491C541.2 50.5776 541.347 49.638 541.28 48.7013V48.7013Z" fill="white"/>
<path d="M569.73 68.6112C569.643 69.7402 569.868 70.8715 570.38 71.8812C570.627 72.2302 570.953 72.515 571.333 72.7117C571.712 72.9083 572.133 73.011 572.56 73.0112L575.34 73.2013H575.41C576.26 73.2013 576.7 73.6612 576.7 74.4112C576.743 74.7899 576.662 75.1721 576.47 75.5012C576.33 75.6612 575.97 75.7412 575.41 75.7412C575.24 75.7412 574.79 75.7412 574.08 75.6712C571.45 75.5112 568.96 75.4413 566.61 75.4413C564.26 75.4413 561.61 75.5213 558.98 75.7013H557.84C557.46 75.7538 557.073 75.6687 556.75 75.4613C556.558 75.1322 556.478 74.7498 556.52 74.3712C556.52 73.6412 556.96 73.2412 557.84 73.1612H557.92L560.65 72.9713C561.065 72.9846 561.477 72.8947 561.849 72.7097C562.22 72.5247 562.541 72.2503 562.78 71.9112C563.295 70.8771 563.519 69.7229 563.43 68.5713V28.8612C563.513 27.6732 563.264 26.4857 562.71 25.4313C562.446 25.0625 562.095 24.7639 561.689 24.5617C561.283 24.3596 560.834 24.2598 560.38 24.2712L558 24.2912C557.602 24.3421 557.198 24.2613 556.85 24.0613C556.639 23.7736 556.549 23.4145 556.6 23.0613C556.555 22.7173 556.618 22.368 556.78 22.0613C557.106 21.893 557.476 21.8268 557.84 21.8712H558.3L561.79 21.8013C563.89 21.7546 565.977 21.6145 568.05 21.3812C568.305 21.3735 568.558 21.3502 568.81 21.3113C569.073 21.2774 569.34 21.33 569.57 21.4613C569.709 21.7036 569.765 21.9843 569.73 22.2612V25.9012C571.132 24.2028 572.918 22.8625 574.94 21.9912C577.135 21.095 579.49 20.6562 581.86 20.7013C586.86 20.7013 590.47 22.2612 592.86 25.3612C595.25 28.4612 596.44 33.2712 596.44 39.7412C596.44 46.2112 595.17 50.9013 592.65 54.0613C590.13 57.2213 586.27 58.7812 581.11 58.7812C578.858 58.8328 576.616 58.4632 574.5 57.6913C572.656 56.9457 571.014 55.7737 569.71 54.2712L569.73 68.6112ZM569.49 39.7912C569.49 45.8312 570.257 50.058 571.79 52.4713C573.32 54.8913 575.89 56.0913 579.51 56.0913C583.13 56.0913 585.8 54.8912 587.32 52.4912C588.84 50.0912 589.6 45.8612 589.6 39.7912C589.6 33.7212 588.85 29.6612 587.38 27.1612C585.91 24.6612 583.46 23.4012 580.07 23.4012C576.3 23.4012 573.6 24.6612 571.96 27.1612C570.32 29.6612 569.49 33.8712 569.49 39.7912Z" fill="white"/>
<path d="M621.53 57.8712H619.6C619.511 57.8721 619.422 57.8549 619.339 57.8206C619.257 57.7862 619.182 57.7354 619.12 57.6713C618.94 57.454 618.808 57.2021 618.73 56.9313L608.79 29.3612C608.355 28.0398 607.746 26.7821 606.98 25.6212C606.761 25.2644 606.47 24.9574 606.126 24.7197C605.781 24.4821 605.391 24.319 604.98 24.2412L603.24 24.0913H603C602.32 24.0313 602 23.6412 602 22.9012C601.96 22.5359 602.03 22.1671 602.2 21.8413C602.5 21.6604 602.852 21.583 603.2 21.6212H604.34C606.71 21.8012 608.94 21.8912 611.01 21.8912C613.08 21.8912 615.33 21.8012 617.65 21.6212H618.79C619.135 21.5796 619.484 21.6461 619.79 21.8113C619.94 21.9313 620 22.3012 620 22.9012C620.011 23.0579 619.99 23.2152 619.936 23.3628C619.882 23.5104 619.797 23.6448 619.688 23.7573C619.578 23.8698 619.446 23.9577 619.3 24.0153C619.154 24.0728 618.997 24.0988 618.84 24.0913H618.76L616.94 24.1613C616.3 24.1877 615.695 24.4599 615.25 24.9213C615.032 25.1398 614.86 25.4006 614.747 25.6879C614.633 25.9751 614.58 26.2826 614.59 26.5913C614.623 26.9887 614.7 27.3811 614.82 27.7612C614.837 27.8409 614.864 27.9181 614.9 27.9912L623.72 53.1412L632.37 28.6713C632.477 28.3765 632.554 28.0715 632.6 27.7612C632.651 27.3968 632.674 27.0292 632.67 26.6613C632.728 26.0077 632.558 25.3543 632.19 24.8113C631.974 24.598 631.718 24.4305 631.436 24.3188C631.154 24.2071 630.853 24.1535 630.55 24.1613L628.77 24.0913C628.512 24.0985 628.258 24.0288 628.04 23.8912C627.92 23.7912 627.86 23.4579 627.86 22.8912C627.86 22.3246 627.92 21.9546 628.04 21.7812C628.349 21.6259 628.697 21.5667 629.04 21.6112H629.84C631.64 21.7912 633.33 21.8812 634.92 21.8812C636.62 21.8768 638.319 21.7867 640.01 21.6112H640.77C641.115 21.5747 641.463 21.6408 641.77 21.8013C641.91 21.9213 641.98 22.2912 641.98 22.8912C641.991 23.0593 641.967 23.2279 641.909 23.3859C641.85 23.5438 641.759 23.6876 641.641 23.8076C641.523 23.9277 641.38 24.0213 641.223 24.0823C641.066 24.1432 640.898 24.1701 640.73 24.1613C640.02 24.2018 639.332 24.422 638.73 24.8013C637.78 25.4667 637.013 26.3609 636.5 27.4012C635.336 29.661 634.334 32.0001 633.5 34.4012L626.9 51.5413C623.153 61.2346 619.937 67.6812 617.25 70.8812C614.56 74.1012 611.37 75.7113 607.71 75.7113C606.134 75.7647 604.577 75.3468 603.24 74.5112C602.715 74.2233 602.273 73.8036 601.959 73.2933C601.646 72.7831 601.47 72.2 601.45 71.6013C601.519 70.765 601.897 69.9844 602.51 69.4113C602.757 69.0825 603.069 68.8081 603.427 68.6051C603.785 68.4021 604.181 68.2748 604.59 68.2312C605.2 68.2312 606.08 68.8212 607.22 70.0012C607.624 70.5009 608.124 70.9143 608.691 71.2167C609.258 71.519 609.88 71.7042 610.52 71.7612C612.39 71.7612 614.27 70.5412 616.19 68.1212C618.499 65.0072 620.301 61.5479 621.53 57.8712V57.8712Z" fill="white"/>
</svg>
