<svg width="20" height="15" viewBox="0 0 20 15" fill="none" xmlns="http://www.w3.org/2000/svg">
<g clip-path="url(#clip0)">
<path d="M19.0323 9.86625C19.0323 7.35646 16.6049 5.30917 13.616 5.30917C10.6271 5.30917 8.21631 7.35646 8.21631 9.86625C8.21631 12.376 10.6437 14.4233 13.6326 14.4233C14.2107 14.4233 14.7556 14.3576 15.2673 14.2087C15.4161 14.1755 15.5809 14.1921 15.7298 14.2586L17.0674 14.9848C17.1498 15.0347 17.2654 14.9516 17.2322 14.8526L16.9677 13.7794C16.9344 13.6147 16.9843 13.4492 17.1324 13.3502C18.2894 12.5083 19.0323 11.2696 19.0323 9.86625V9.86625ZM11.6843 9.27222C11.2717 9.27222 10.9414 8.94197 10.9414 8.52933C10.9414 8.1167 11.2717 7.78644 11.6843 7.78644C12.097 7.78644 12.4272 8.1167 12.4272 8.52933C12.4272 8.94197 12.097 9.27222 11.6843 9.27222ZM15.3338 9.27222C14.9211 9.27222 14.5909 8.94197 14.5909 8.52933C14.5909 8.1167 14.9211 7.78644 15.3338 7.78644C15.7464 7.78644 16.0766 8.1167 16.0766 8.52933C16.0766 8.94197 15.7298 9.27222 15.3338 9.27222Z" fill="#A4A4A4"/>
<path d="M7.77135 9.88287C7.77135 7.09269 10.4134 4.83005 13.6827 4.83005H13.9306C13.4016 2.30364 10.727 0.371979 7.50686 0.371979C3.89069 0.371979 0.968262 2.78276 0.968262 5.77167C0.968262 7.42294 1.87664 8.90872 3.29666 9.89949C3.39567 9.96525 3.42891 10.0809 3.41229 10.1965L2.91727 11.9468C2.88403 12.0624 3.01627 12.178 3.1319 12.1115L5.06356 10.956C5.19581 10.8736 5.34395 10.857 5.49282 10.9061C6.1367 11.0709 6.81383 11.1706 7.50758 11.1706C7.65645 11.1706 7.8046 11.1706 7.97009 11.154C7.83712 10.7414 7.77135 10.3121 7.77135 9.88287V9.88287ZM9.70302 3.22864C10.1821 3.22864 10.5782 3.62466 10.5782 4.10378C10.5782 4.5829 10.1821 4.97892 9.70302 4.97892C9.22389 4.97892 8.82788 4.5829 8.82788 4.10378C8.82788 3.62466 9.22462 3.22864 9.70302 3.22864ZM5.31071 4.97892C4.83159 4.97892 4.43557 4.5829 4.43557 4.10378C4.43557 3.62466 4.83159 3.22864 5.31071 3.22864C5.78983 3.22864 6.18584 3.62466 6.18584 4.10378C6.18584 4.5829 5.80645 4.97892 5.31071 4.97892Z" fill="#A4A4A4"/>
</g>
<defs>
<clipPath id="clip0">
<rect width="18.0643" height="14.628" fill="white" transform="translate(0.968262 0.371979)"/>
</clipPath>
</defs>
</svg>
