<svg width="19" height="15" viewBox="0 0 19 15" fill="none" xmlns="http://www.w3.org/2000/svg">
<g clip-path="url(#clip0)">
<path d="M18.0641 9.49427C18.0641 6.98448 15.6366 4.93719 12.6477 4.93719C9.65883 4.93719 7.24805 6.98448 7.24805 9.49427C7.24805 12.0041 9.67545 14.0513 12.6644 14.0513C13.2425 14.0513 13.7874 13.9856 14.299 13.8367C14.4479 13.8035 14.6126 13.8201 14.7615 13.8866L16.0991 14.6128C16.1815 14.6627 16.2972 14.5796 16.2639 14.4806L15.9994 13.4075C15.9662 13.2427 16.016 13.0772 16.1642 12.9782C17.3212 12.1363 18.0641 10.8977 18.0641 9.49427V9.49427ZM10.7161 8.90024C10.3034 8.90024 9.97319 8.56999 9.97319 8.15735C9.97319 7.74472 10.3034 7.41446 10.7161 7.41446C11.1287 7.41446 11.459 7.74472 11.459 8.15735C11.459 8.56999 11.1287 8.90024 10.7161 8.90024ZM14.3655 8.90024C13.9529 8.90024 13.6226 8.56999 13.6226 8.15735C13.6226 7.74472 13.9529 7.41446 14.3655 7.41446C14.7781 7.41446 15.1084 7.74472 15.1084 8.15735C15.1084 8.56999 14.7615 8.90024 14.3655 8.90024Z" fill="#575757"/>
<path d="M6.80309 9.51089C6.80309 6.72071 9.44513 4.45807 12.7144 4.45807H12.9623C12.4333 1.93166 9.75876 0 6.5386 0C2.92242 0 0 2.41078 0 5.39969C0 7.05096 0.90838 8.53675 2.3284 9.52751C2.4274 9.59327 2.46065 9.7089 2.44403 9.82452L1.94901 11.5748C1.91576 11.6904 2.04801 11.806 2.16363 11.7396L4.0953 10.584C4.22754 10.5016 4.37569 10.485 4.52456 10.5342C5.16844 10.6989 5.84557 10.7987 6.53932 10.7987C6.68819 10.7987 6.83633 10.7987 7.00182 10.782C6.86885 10.3694 6.80309 9.94015 6.80309 9.51089ZM8.73475 2.85666C9.21388 2.85666 9.60989 3.25268 9.60989 3.7318C9.60989 4.21092 9.21388 4.60694 8.73475 4.60694C8.25563 4.60694 7.85962 4.21092 7.85962 3.7318C7.85962 3.25268 8.25636 2.85666 8.73475 2.85666ZM4.34245 4.60694C3.86332 4.60694 3.46731 4.21092 3.46731 3.7318C3.46731 3.25268 3.86332 2.85666 4.34245 2.85666C4.82157 2.85666 5.21758 3.25268 5.21758 3.7318C5.21758 4.21092 4.83819 4.60694 4.34245 4.60694Z" fill="#575757"/>
</g>
<defs>
<clipPath id="clip0">
<rect width="18.0643" height="14.628" fill="white"/>
</clipPath>
</defs>
</svg>
